<svg version="1.0" xmlns="http://www.w3.org/2000/svg" preserveAspectRatio="xMidYMid meet" viewBox="26 214.7 402.96 115.23">  <g transform="translate(0.000000,500.000000) scale(0.100000,-0.100000)" fill="#ffffff" stroke="none"> <path d="M264 2836 c-3 -9 -4 -58 -2 -109 7 -144 43 -196 141 -200 42 -2 42 -2 45 36 3 35 2 37 -26 37 -53 0 -75 29 -80 104 l-4 66 88 0 c106 0 148 -17 181 -76 31 -53 32 -169 3 -229 -33 -67 -64 -79 -217 -83 l-133 -4 0 -35 0 -35 143 4 c152 4 195 16 243 70 49 53 59 87 59 199 0 100 -2 108 -30 155 -23 38 -43 56 -87 78 -52 26 -70 29 -188 34 -115 4 -130 3 -136 -12z"/> <path d="M840 2580 l0 -270 40 0 40 0 0 270 0 270 -40 0 -40 0 0 -270z"/> <path d="M1070 2810 l0 -40 191 0 190 0 -7 -22 c-3 -13 -40 -113 -80 -222 -41 -110 -74 -203 -74 -208 0 -4 17 -8 38 -8 l38 0 88 247 c48 135 86 255 84 267 -3 21 -8 21 -235 24 l-233 2 0 -40z"/> <path d="M1604 2837 c-3 -9 -4 -26 -2 -39 2 -18 10 -24 36 -26 31 -3 33 -5 27 -30 -38 -144 -18 -297 49 -370 73 -81 229 -93 328 -25 111 76 130 311 35 420 -56 64 -98 76 -294 81 -150 4 -173 3 -179 -11z m374 -86 c60 -31 77 -70 77 -176 0 -103 -17 -143 -75 -182 -44 -30 -131 -32 -177 -3 -64 39 -91 146 -73 283 7 45 14 85 16 89 3 4 48 8 100 8 74 0 103 -4 132 -19z"/> <path d="M2270 2581 l0 -271 40 0 40 0 -2 268 -3 267 -37 3 -38 3 0 -270z"/> <path d="M2500 2673 c0 -188 6 -230 43 -284 70 -104 258 -118 361 -28 65 57 81 107 81 249 -1 183 -38 240 -159 240 -83 0 -106 -12 -106 -56 0 -30 3 -35 18 -29 31 12 81 18 106 11 45 -11 61 -58 61 -176 0 -90 -4 -111 -23 -148 -31 -58 -73 -82 -142 -82 -69 0 -111 24 -142 82 -20 39 -23 60 -26 221 l-4 177 -34 0 -34 0 0 -177z"/> <path d="M3760 2811 c0 -39 1 -41 31 -41 l31 0 -9 -42 c-4 -24 -8 -90 -8 -148 0 -94 3 -111 26 -155 84 -164 345 -164 429 0 19 37 26 69 29 129 6 137 -33 217 -127 263 -52 25 -65 27 -229 31 l-173 5 0 -42z m370 -59 c100 -50 110 -265 16 -352 -38 -34 -146 -41 -193 -11 -56 35 -68 71 -68 206 0 66 3 132 8 148 l7 27 98 0 c72 0 106 -4 132 -18z"/> <path d="M3224 2816 c-3 -9 -23 -21 -45 -27 -21 -7 -53 -24 -71 -39 -31 -26 -32 -30 -30 -95 2 -83 21 -151 69 -251 38 -79 80 -121 148 -150 l37 -15 -4 -115 -3 -116 -36 -32 -35 -33 -154 -6 c-84 -4 -411 -7 -727 -7 l-573 0 0 -25 0 -25 727 0 726 0 43 25 c73 43 88 80 92 221 l4 122 29 6 c33 6 129 91 129 113 0 8 8 27 19 41 52 76 89 269 61 321 -6 13 -37 34 -68 49 -32 14 -61 31 -65 39 -11 17 -51 17 -66 -1 -9 -11 -10 -20 -1 -36 10 -18 17 -20 53 -15 33 4 51 0 81 -17 48 -28 56 -53 45 -139 -15 -107 -38 -158 -99 -217 -72 -70 -107 -92 -151 -92 -37 0 -125 48 -135 75 -3 8 -15 17 -25 20 -40 13 -99 174 -99 272 0 37 5 46 37 70 30 23 46 28 92 28 56 0 56 0 56 30 0 25 -4 30 -28 33 -17 2 -29 -2 -33 -12z"/> <path d="M1070 2365 l0 -275 40 0 40 0 0 275 0 275 -40 0 -40 0 0 -275z"/> <path d="M992 2163 c-5 -10 -24 -64 -42 -120 l-33 -103 -83 0 c-73 0 -83 2 -89 20 -3 10 -20 31 -36 45 -67 56 -174 21 -200 -65 -22 -73 41 -153 120 -153 47 0 86 23 109 64 17 29 17 29 114 29 109 0 104 -3 133 86 28 87 25 81 34 64 5 -8 14 -40 21 -70 16 -69 25 -80 65 -80 30 0 33 -4 56 -62 19 -47 30 -64 46 -66 23 -3 27 7 66 158 l14 55 12 -30 c6 -16 14 -36 16 -43 3 -9 22 -12 61 -10 57 3 63 7 80 53 5 13 14 -22 28 -105 19 -113 23 -125 43 -128 24 -4 22 -9 61 148 17 69 19 73 31 53 11 -21 19 -23 91 -23 l80 0 0 30 0 30 -63 0 -63 0 -18 49 c-33 92 -65 86 -86 -17 -11 -53 -29 -99 -30 -77 -1 32 -39 255 -44 264 -4 6 -16 11 -26 11 -19 0 -20 -3 -51 -163 -11 -59 -16 -67 -33 -65 -15 2 -26 21 -45 83 -21 64 -30 80 -46 80 -20 0 -19 1 -68 -180 l-13 -50 -17 33 c-14 26 -23 32 -51 32 l-33 0 -23 88 c-12 48 -28 102 -36 120 -14 35 -38 42 -52 15z m-320 -210 c39 -35 11 -103 -43 -103 -35 0 -59 24 -59 57 0 55 62 83 102 46z"/> </g> </svg>